<svg xmlns="http://www.w3.org/2000/svg" width="66" height="33" viewBox="0 0 66 33"><defs><filter id="a" filterUnits="userSpaceOnUse"><feFlood flood-color="#FD4B4E" flood-opacity="1"/><feComposite operator="in" in2="SourceGraphic"/><feBlend in2="SourceGraphic" result="colorOverlay"/></filter></defs><path d="M35 2c-.439 3.208-.877 2.929-2 5 .221.008 8 0 8 0v3c2.349 1.553 4.473-3.104 8-2 .939.294 4.057 3.596 5 4h8c1.585.71 1.424 2.214 4 3-.889 1.1.094.103-1 1-1.522 1.169-1.123.92-3 0l-2 4c-3.283 2.206-4.597-1.049-8 0l-1 2c-1.198.453-2.531-.903-5 0-.857 1.244-.772 1.134-2 2 1.441 2.024 1.638 1.291 2 5-.958.917-1.344 1.737-2 3h-2c.333-2.888-.336-4.603-4-6-1.23 1.443-13.085 3.268-16 2l-2-3c-2.801-1.17-9.911 2.242-12 3 .808 2.949 1.633 3.922-1 5-.917-.958-1.737-1.344-3-2 .905-5.437-2.797-3.748-4-8-.605-2.14 1.832-3.027 2-4 .114-.66-.966-4.834-1-7 3.943.617 3.79 2.702 5 3 2.459.605 6.318-3.391 11-2v-1c-1.273-1.915-.638-1.885 0-4 6.928.916 8.836-5.359 15-8 1.283 2.582-.168 1.281 3 2zM3 15v2h2v-2H3zm51 6c.909 1.189.815 1.651 1 4l-3 2c.229-3.76.784-3.757 2-6z" fill="#FD4B4E" filter="url(#a)"/></svg>