<?xml version="1.0" encoding="UTF-8"?>
<svg width="158px" height="99px" viewBox="0 0 158 99" version="1.1" xmlns="http://www.w3.org/2000/svg" xmlns:xlink="http://www.w3.org/1999/xlink" xmlns:sketch="http://www.bohemiancoding.com/sketch/ns">
    <!-- Generator: Sketch 3.3.3 (12081) - http://www.bohemiancoding.com/sketch -->
    <title>Untitled 5</title>
    <desc>Created with Sketch.</desc>
    <defs></defs>
    <g id="Page-1" stroke="none" stroke-width="1" fill="none" fill-rule="evenodd" sketch:type="MSPage">
        <path d="M78.82,0.652 C60.633,0.652 46.246,5.406 30.805,14.234 C11.398,26.453 0,44.55 0,58.386 C0,69.593 8.449,79.972 23.793,87.613 C38.535,94.957 58.078,99 78.82,99 C99.562,99 119.105,94.957 133.852,87.613 C149.191,79.972 157.641,69.593 157.641,58.386 C157.641,35.402 126.203,0.652 78.82,0.652 L78.82,0.652 Z M77.828,35.406 C72.961,30.347 67.113,25.968 60.348,22.363 C62.852,20.554 65.52,18.843 68.355,17.226 C71.5,15.437 74.566,13.941 77.41,12.699 C80.484,14.007 83.848,15.621 87.305,17.59 C90.031,19.14 92.605,20.785 95.027,22.519 C88.383,26.093 82.629,30.418 77.828,35.406 L77.828,35.406 Z M62.195,7.621 C62.379,7.707 65.816,8.457 70.402,10.015 C68.91,10.761 67.383,11.57 65.832,12.449 C61.914,14.668 58.27,17.097 54.91,19.718 C49.52,17.332 44.555,15.793 40.73,14.824 C47.438,11.496 54.664,9.066 62.195,7.621 L62.195,7.621 Z M89.824,12.808 C87.977,11.761 86.16,10.812 84.398,9.953 C89.465,8.175 93.273,7.351 93.457,7.265 C101.461,8.609 109.141,11.05 116.254,14.5 C112.227,15.453 106.605,17.097 100.449,19.851 C97.172,17.32 93.629,14.965 89.824,12.808 L89.824,12.808 Z M79.324,6.058 C78.695,6.304 78.047,6.562 77.387,6.832 C76.758,6.582 76.145,6.343 75.547,6.117 C76.637,6.078 79.156,6.058 79.324,6.058 L79.324,6.058 Z M131.441,82.781 C117.43,89.757 98.742,93.601 78.82,93.601 C58.898,93.601 40.211,89.757 26.199,82.781 C12.789,76.097 5.398,67.437 5.398,58.386 C5.398,48.218 13.113,35.148 25.051,25.082 C27.746,22.808 30.602,20.722 33.586,18.836 C36.043,19.238 42.543,20.504 50.273,23.625 C40.598,32.406 33.785,43 30.262,54.906 C29.836,56.336 30.652,57.84 32.082,58.261 C32.34,58.34 32.598,58.375 32.852,58.375 C34.016,58.375 35.09,57.613 35.438,56.441 C38.945,44.605 45.723,34.422 55.652,26.027 C55.879,26.136 66.766,30.363 74.285,39.422 C68.902,46.093 65.047,53.769 62.871,62.285 C62.504,63.726 63.375,65.199 64.82,65.566 C65.043,65.625 65.27,65.652 65.492,65.652 C66.695,65.652 67.793,64.84 68.105,63.621 C70.023,56.109 73.277,49.406 77.832,43.543 C82.383,49.406 85.637,56.105 87.555,63.621 C87.867,64.84 88.965,65.652 90.168,65.652 C90.391,65.652 90.617,65.625 90.84,65.566 C92.285,65.199 93.156,63.726 92.789,62.285 C90.613,53.769 86.758,46.093 81.375,39.422 C86.199,34.351 92.137,30.011 99.18,26.437 C99.363,26.343 99.551,26.254 99.734,26.16 C109.812,34.597 116.684,44.855 120.219,56.8 C120.566,57.972 121.645,58.734 122.809,58.734 C123.062,58.734 123.32,58.695 123.574,58.621 C125.004,58.199 125.82,56.695 125.398,55.265 C121.84,43.246 114.934,32.566 105.113,23.734 C115.027,19.695 123.469,18.617 123.625,18.566 C126.77,20.527 129.766,22.695 132.594,25.082 C144.527,35.144 152.242,48.218 152.242,58.386 C152.242,67.437 144.855,76.097 131.441,82.781 L131.441,82.781 Z" id="bakeries" fill="#000000" sketch:type="MSShapeGroup"></path>
    </g>
</svg>