<?xml version="1.0" encoding="UTF-8"?>
<svg width="345px" height="376px" viewBox="0 0 345 376" version="1.1" xmlns="http://www.w3.org/2000/svg" xmlns:xlink="http://www.w3.org/1999/xlink" xmlns:sketch="http://www.bohemiancoding.com/sketch/ns">
    <!-- Generator: Sketch 3.3.3 (12081) - http://www.bohemiancoding.com/sketch -->
    <title>Untitled</title>
    <desc>Created with Sketch.</desc>
    <defs></defs>
    <g id="Page-1" stroke="none" stroke-width="1" fill="none" fill-rule="evenodd" sketch:type="MSPage">
        <g id="bars" sketch:type="MSLayerGroup" fill="#000000">
            <path d="M284.281,128.539 L259.234,128.539 L259.234,126.539 C259.234,123.227 256.547,120.539 253.234,120.539 C249.922,120.539 247.234,123.227 247.234,126.539 L247.234,261.688 C247.234,265 249.922,267.688 253.234,267.688 C256.547,267.688 259.234,265 259.234,261.688 L259.234,259.688 L284.281,259.688 C299.609,259.688 312.082,247.219 312.082,231.891 L312.082,156.336 C312.082,141.008 299.609,128.539 284.281,128.539 L284.281,128.539 Z M300.082,231.891 C300.082,240.602 292.996,247.688 284.281,247.688 L259.234,247.688 L259.234,140.539 L284.281,140.539 C292.996,140.539 300.082,147.625 300.082,156.336 L300.082,231.891 Z M229.234,87.707 C225.922,87.707 223.234,90.395 223.234,93.707 L223.234,152.539 L53.637,152.539 L53.637,93.707 C53.637,90.395 50.949,87.707 47.637,87.707 C44.32,87.707 41.637,90.395 41.637,93.707 L41.637,182.539 C41.637,185.852 44.32,188.539 47.637,188.539 C50.949,188.539 53.637,185.852 53.637,182.539 L53.637,164.539 L223.234,164.539 L223.234,294.52 C223.234,304.445 215.16,312.52 205.234,312.52 L181.234,312.52 C177.922,312.52 175.234,315.203 175.234,318.52 C175.234,321.832 177.922,324.52 181.234,324.52 L205.234,324.52 C221.777,324.52 235.234,311.062 235.234,294.52 L235.234,93.707 C235.234,90.395 232.547,87.707 229.234,87.707 Z M205.234,253.75 C205.234,257.062 202.551,259.75 199.234,259.75 C195.922,259.75 193.234,257.062 193.234,253.75 C193.234,250.438 195.922,247.75 199.234,247.75 C202.551,247.75 205.234,250.438 205.234,253.75 Z M205.234,229.75 C205.234,233.062 202.551,235.75 199.234,235.75 C195.922,235.75 193.234,233.062 193.234,229.75 C193.234,226.438 195.922,223.75 199.234,223.75 C202.551,223.75 205.234,226.438 205.234,229.75 Z M157.234,312.52 L71.637,312.52 C61.711,312.52 53.637,304.445 53.637,294.52 L53.637,206.539 C53.637,203.227 50.949,200.539 47.637,200.539 C44.32,200.539 41.637,203.227 41.637,206.539 L41.637,294.52 C41.637,311.062 55.094,324.52 71.637,324.52 L157.234,324.52 C160.547,324.52 163.234,321.832 163.234,318.52 C163.234,315.203 160.547,312.52 157.234,312.52 Z" id="Fill-1" sketch:type="MSShapeGroup"></path>
            <path d="M284.281,96.539 L259.234,96.539 L259.234,69.707 C259.234,66.395 256.547,63.707 253.234,63.707 L250.41,63.707 C247.453,40.672 227.734,22.809 203.91,22.809 C199.684,22.809 195.52,23.371 191.48,24.48 C178.207,8.871 159.105,0 138.434,0 C117.762,0 98.664,8.871 85.387,24.484 C81.348,23.371 77.184,22.809 72.961,22.809 C49.133,22.809 29.414,40.672 26.457,63.707 L23.637,63.707 C20.32,63.707 17.637,66.395 17.637,69.707 L17.637,314.594 C6.934,320.102 0,331.234 0,343.496 C0,361.418 14.582,376 32.504,376 L244.367,376 C262.289,376 276.871,361.418 276.871,343.496 C276.871,331.234 269.934,320.102 259.234,314.594 L259.234,291.688 L284.285,291.688 C317.258,291.688 344.082,264.863 344.082,231.891 L344.082,156.336 C344.082,123.363 317.258,96.539 284.281,96.539 L284.281,96.539 Z M72.961,34.809 C77.215,34.809 81.379,35.574 85.348,37.082 C87.844,38.031 90.668,37.211 92.273,35.078 C103.297,20.41 120.121,12 138.434,12 C156.75,12 173.574,20.41 184.598,35.074 C186.203,37.211 189.023,38.031 191.523,37.078 C195.488,35.574 199.656,34.809 203.91,34.809 C221.105,34.809 235.426,47.316 238.281,63.707 L38.59,63.707 C41.441,47.316 55.762,34.809 72.961,34.809 L72.961,34.809 Z M332.082,231.891 C332.082,258.246 310.641,279.688 284.281,279.688 L253.234,279.688 C249.922,279.688 247.234,282.375 247.234,285.688 L247.234,318.52 C247.234,321.059 248.832,323.324 251.227,324.172 C259.387,327.07 264.871,334.836 264.871,343.496 C264.871,354.801 255.672,364 244.367,364 L32.504,364 C21.199,364 12,354.801 12,343.496 C12,334.836 17.48,327.07 25.645,324.172 C28.035,323.324 29.637,321.059 29.637,318.52 L29.637,75.707 L247.234,75.707 L247.234,102.539 C247.234,105.852 249.922,108.539 253.234,108.539 L284.285,108.539 C310.641,108.539 332.082,129.98 332.082,156.336 L332.082,231.891 Z" id="Fill-3" sketch:type="MSShapeGroup"></path>
        </g>
    </g>
</svg>