<?xml version="1.0" encoding="UTF-8"?>
<svg width="249px" height="236px" viewBox="0 0 249 236" version="1.1" xmlns="http://www.w3.org/2000/svg" xmlns:xlink="http://www.w3.org/1999/xlink" xmlns:sketch="http://www.bohemiancoding.com/sketch/ns">
    <!-- Generator: Sketch 3.3.3 (12081) - http://www.bohemiancoding.com/sketch -->
    <title>Untitled 4</title>
    <desc>Created with Sketch.</desc>
    <defs></defs>
    <g id="Page-1" stroke="none" stroke-width="1" fill="none" fill-rule="evenodd" sketch:type="MSPage">
        <path d="M217.027,79.324 L206.84,79.324 L206.84,68.359 C206.84,64.824 203.973,61.961 200.438,61.961 L145.914,61.961 C142.383,61.961 139.516,64.824 139.516,68.359 C139.516,71.895 142.383,74.762 145.914,74.762 L194.039,74.762 L194.039,131.852 C194.039,163.332 168.426,188.941 136.945,188.941 L101.852,188.941 C70.371,188.941 44.762,163.332 44.762,131.852 L44.762,74.762 L70.023,74.762 C67.293,80.93 65.727,87.75 65.551,94.559 C65.246,106.649 69.27,117.215 76.875,124.316 C79.461,126.731 83.512,126.59 85.922,124.004 C88.336,121.422 88.195,117.371 85.609,114.961 C74.695,104.774 76.961,84.129 86.266,72.328 C97.008,59.965 102.918,44.152 102.918,27.758 C102.918,23.703 102.562,19.688 101.859,15.742 C116.98,20.813 129.43,32.336 135.527,47.43 C136.852,50.707 140.582,52.293 143.859,50.969 C147.137,49.645 148.719,45.914 147.398,42.637 C138.32,20.164 117.805,4.117 93.852,0.762 C91.633,0.453 89.418,1.32 88.004,3.055 C86.586,4.789 86.184,7.137 86.934,9.246 C89.047,15.18 90.117,21.406 90.117,27.758 C90.117,40.207 85.918,52.242 78.238,61.961 L38.359,61.961 C34.828,61.961 31.961,64.824 31.961,68.359 L31.961,131.852 C31.961,170.391 63.312,201.742 101.852,201.742 L136.945,201.742 C167.211,201.742 193.043,182.406 202.742,155.441 L217.027,155.441 C234.629,155.441 248.945,141.121 248.945,123.524 L248.945,111.242 C248.949,93.645 234.629,79.324 217.027,79.324 L217.027,79.324 Z M236.148,123.524 C236.148,134.063 227.57,142.641 217.027,142.641 L206.84,142.641 L206.84,92.125 L217.027,92.125 C227.57,92.125 236.148,100.703 236.148,111.242 L236.148,123.524 Z M238.797,229.602 C238.797,233.133 235.934,236 232.398,236 L6.398,236 C2.867,236 0,233.133 0,229.602 C0,226.066 2.867,223.199 6.398,223.199 L232.398,223.199 C235.934,223.199 238.797,226.066 238.797,229.602 L238.797,229.602 Z M116.344,79.024 C110.035,86.899 108.328,101.305 115.586,108.078 C118.168,110.488 118.309,114.539 115.898,117.125 C114.637,118.473 112.93,119.156 111.219,119.156 C109.652,119.156 108.086,118.586 106.852,117.438 C93.953,105.399 96.18,83.715 106.355,71.02 C108.566,68.262 112.594,67.816 115.352,70.027 C118.109,72.238 118.555,76.266 116.344,79.024 L116.344,79.024 Z" id="caffe" fill="#000000" sketch:type="MSShapeGroup"></path>
    </g>
</svg>