<?xml version="1.0" encoding="UTF-8"?>
<svg width="329px" height="311px" viewBox="0 0 329 311" version="1.1" xmlns="http://www.w3.org/2000/svg" xmlns:xlink="http://www.w3.org/1999/xlink" xmlns:sketch="http://www.bohemiancoding.com/sketch/ns">
    <!-- Generator: Sketch 3.3.3 (12081) - http://www.bohemiancoding.com/sketch -->
    <title>Untitled 3</title>
    <desc>Created with Sketch.</desc>
    <defs></defs>
    <g id="Page-1" stroke="none" stroke-width="1" fill="none" fill-rule="evenodd" sketch:type="MSPage">
        <path d="M160.651413,156.659925 C163.776413,159.784925 163.776413,164.850925 160.651413,167.975925 L132.937413,195.690925 C131.374413,197.253925 129.327413,198.034925 127.280413,198.034925 C125.229413,198.034925 123.183413,197.253925 121.620413,195.690925 C118.499413,192.569925 118.495413,187.503925 121.620413,184.378925 L149.339413,156.659925 C152.464413,153.538925 157.526413,153.538925 160.651413,156.659925 L160.651413,156.659925 Z M69.5774134,66.8199251 L160.347413,66.8199251 C163.003413,66.8199251 165.249413,69.0659251 165.249413,71.7219251 C165.249413,74.3819251 163.003413,76.6249251 160.347413,76.6249251 L108.960413,76.6249251 C97.4374134,76.6249251 88.0614134,86.0039251 88.0614134,97.5269251 L88.0614134,110.432925 C88.0614134,114.850925 91.6444134,118.432925 96.0614134,118.432925 C100.479413,118.432925 104.061413,114.850925 104.061413,110.432925 L104.061413,97.5269251 C104.061413,94.8709251 106.304413,92.6249251 108.960413,92.6249251 L160.347413,92.6249251 C171.870413,92.6249251 181.249413,83.2499251 181.249413,71.7219251 C181.249413,60.1989251 171.870413,50.8199251 160.347413,50.8199251 L69.5774134,50.8199251 C66.9174134,50.8199251 64.6754134,48.5739251 64.6754134,45.9179251 C64.6754134,43.2609251 66.9174134,41.0149251 69.5774134,41.0149251 L125.929413,41.0149251 C137.456413,41.0149251 146.831413,31.6359251 146.831413,20.1129251 C146.831413,15.6949251 143.253413,12.1129251 138.831413,12.1129251 C134.413413,12.1129251 130.831413,15.6949251 130.831413,20.1129251 C130.831413,22.7689251 128.589413,25.0149251 125.929413,25.0149251 L69.5774134,25.0149251 C58.0504134,25.0149251 48.6754134,34.3939251 48.6754134,45.9179251 C48.6754134,57.4449251 58.0504134,66.8199251 69.5774134,66.8199251 L69.5774134,66.8199251 Z M328.218413,256.897925 C328.218413,261.315925 324.636413,264.897925 320.218413,264.897925 L258.866413,264.897925 L233.862413,306.233925 C232.413413,308.631925 229.815413,310.092925 227.019413,310.092925 L102.042413,310.092925 C99.2414134,310.092925 96.6474134,308.631925 95.1984134,306.233925 L70.1944134,264.897925 L40.9914134,264.897925 L40.6834134,264.897925 L8.84341341,264.897925 C4.42141341,264.897925 0.843413411,261.315925 0.843413411,256.897925 C0.843413411,252.479925 4.42141341,248.897925 8.84341341,248.897925 L30.1204134,248.897925 C30.0034134,247.788925 29.9444134,246.674925 29.9444134,245.553925 C29.9444134,235.096925 34.9764134,225.596925 43.2144134,219.745925 C42.8044134,217.702925 42.5974134,215.612925 42.5974134,213.487925 C42.5974134,205.225925 45.7764134,197.694925 50.9724134,192.045925 L44.7414134,177.569925 L44.6874134,177.569925 C28.2924134,177.569925 12.0464134,166.053925 4.34341341,148.167925 C-4.40258659,127.854925 0.390413411,105.186925 15.7454134,94.2649251 C16.6714134,93.6089251 17.7224134,93.1559251 18.8354134,92.9329251 C37.3194134,89.2849251 57.0854134,101.378925 65.8314134,121.690925 C73.5464134,139.596925 70.7294134,159.335925 59.4334134,171.241925 L64.6284134,183.299925 C67.6754134,182.323925 70.9214134,181.795925 74.2884134,181.795925 C89.8664134,181.795925 102.858413,193.092925 105.491413,207.928925 L105.765413,207.928925 C123.241413,207.928925 137.456413,222.143925 137.456413,239.620925 C137.456413,242.784925 136.976413,245.913925 136.058413,248.897925 L233.546413,248.897925 C236.784413,242.147925 239.011413,234.971925 240.175413,227.506925 L261.901413,88.2459251 L235.132413,84.0659251 L215.319413,138.733925 C214.015413,142.331925 210.343413,144.495925 206.565413,143.913925 L175.620413,139.085925 C146.124413,134.483925 116.202413,147.604925 99.4014134,172.514925 C96.9334134,176.178925 91.9604134,177.143925 88.2964134,174.670925 C84.6324134,172.202925 83.6674134,167.229925 86.1364134,163.565925 C106.390413,133.538925 142.483413,117.721925 178.085413,123.276925 L202.522413,127.088925 L231.948413,45.8819251 C225.433413,40.0499251 222.058413,31.1319251 223.448413,22.2179251 C224.526413,15.2889251 228.245413,9.19492508 233.909413,5.05792508 C239.577413,0.920925079 246.515413,-0.762074921 253.444413,0.319925079 C257.765413,0.991925079 261.792413,2.71392508 265.214413,5.29992508 C269.261413,3.88192508 273.624413,3.46792508 277.944413,4.14392508 C292.253413,6.37492508 302.077413,19.8319251 299.843413,34.1399251 C298.386413,43.5039251 291.929413,51.2539251 283.347413,54.5889251 L255.983413,229.971925 C254.968413,236.483925 253.284413,242.811925 250.952413,248.897925 L293.679413,248.897925 C295.284413,245.881925 296.120413,242.530925 296.120413,239.034925 C296.120413,227.436925 286.687413,218.003925 275.089413,218.003925 C270.667413,218.003925 267.089413,214.420925 267.089413,210.003925 C267.089413,205.585925 270.667413,202.003925 275.089413,202.003925 C295.507413,202.003925 312.120413,218.616925 312.120413,239.034925 C312.120413,242.417925 311.675413,245.721925 310.804413,248.897925 L320.218413,248.897925 C324.636413,248.897925 328.218413,252.479925 328.218413,256.897925 L328.218413,256.897925 Z M264.370413,72.4369251 L268.343413,46.9719251 C268.890413,43.4569251 271.694413,40.7259251 275.222413,40.2729251 C279.714413,39.6909251 283.339413,36.1559251 284.038413,31.6749251 C284.909413,26.0859251 281.069413,20.8239251 275.479413,19.9529251 C272.921413,19.5539251 270.327413,20.1289251 268.175413,21.5739251 C264.710413,23.9059251 260.030413,23.1709251 257.440413,19.8979251 C255.831413,17.8669251 253.542413,16.5269251 250.983413,16.1289251 C248.272413,15.7109251 245.561413,16.3629251 243.347413,17.9799251 C241.132413,19.5969251 239.679413,21.9799251 239.257413,24.6869251 C238.561413,29.1519251 240.925413,33.6209251 245.003413,35.5459251 C248.733413,37.3119251 250.511413,41.6249251 249.104413,45.5039251 L240.687413,68.7379251 L264.370413,72.4369251 Z M51.9404134,153.838925 C55.0584134,146.518925 54.9644134,136.901925 51.1404134,128.018925 C45.7454134,115.491925 34.1874134,107.338925 23.6554134,108.378925 C15.6754134,115.315925 13.6444134,129.311925 19.0384134,141.838925 C22.8624134,150.721925 29.7884134,157.397925 37.2454134,160.167925 L27.4644134,137.448925 C25.7184134,133.393925 27.5894134,128.686925 31.6474134,126.936925 C35.7064134,125.190925 40.4134134,127.065925 42.1594134,131.120925 L51.9404134,153.838925 Z M118.429413,248.897925 C120.397413,246.229925 121.456413,243.018925 121.456413,239.620925 C121.456413,230.967925 114.417413,223.928925 105.765413,223.928925 C103.921413,223.928925 102.116413,224.245925 100.401413,224.870925 C97.7334134,225.838925 94.7454134,225.323925 92.5584134,223.510925 C90.3744134,221.694925 89.3114134,218.858925 89.7724134,216.053925 C89.9134134,215.206925 89.9834134,214.346925 89.9834134,213.491925 C89.9834134,204.838925 82.9444134,197.795925 74.2884134,197.795925 C71.1244134,197.795925 68.1714134,198.741925 65.7024134,200.362925 C65.4094134,200.604925 65.0974134,200.827925 64.7654134,201.026925 C61.0194134,203.897925 58.5974134,208.417925 58.5974134,213.491925 C58.5974134,215.819925 59.0974134,218.061925 60.0774134,220.147925 C61.0154134,222.139925 61.0894134,224.432925 60.2804134,226.483925 C59.4724134,228.534925 57.8544134,230.159925 55.8084134,230.979925 C49.8154134,233.378925 45.9444134,239.096925 45.9444134,245.553925 C45.9444134,246.698925 46.0614134,247.811925 46.2964134,248.897925 L118.429413,248.897925 Z M240.167413,264.897925 L238.550413,264.897925 L238.249413,264.897925 L88.8944134,264.897925 L106.554413,294.092925 L222.507413,294.092925 L240.167413,264.897925 Z M187.374413,235.069925 C188.937413,236.628925 190.983413,237.413925 193.030413,237.413925 C195.077413,237.413925 197.124413,236.628925 198.687413,235.069925 L226.405413,207.350925 C229.526413,204.225925 229.526413,199.159925 226.405413,196.034925 C223.280413,192.913925 218.214413,192.913925 215.089413,196.034925 L187.374413,223.753925 C184.249413,226.878925 184.249413,231.944925 187.374413,235.069925 L187.374413,235.069925 Z M194.280413,164.874925 L149.905413,209.249925 C146.784413,212.370925 146.784413,217.436925 149.905413,220.561925 C151.468413,222.124925 153.515413,222.905925 155.561413,222.905925 C157.612413,222.905925 159.659413,222.124925 161.222413,220.561925 L205.593413,176.186925 C208.718413,173.061925 208.718413,167.999925 205.593413,164.874925 C202.472413,161.749925 197.405413,161.749925 194.280413,164.874925 L194.280413,164.874925 Z" id="dining" fill="#000000" sketch:type="MSShapeGroup"></path>
    </g>
</svg>