<?xml version="1.0" encoding="UTF-8"?>
<svg width="512px" height="512px" viewBox="0 0 512 512" version="1.1" xmlns="http://www.w3.org/2000/svg" xmlns:xlink="http://www.w3.org/1999/xlink" xmlns:sketch="http://www.bohemiancoding.com/sketch/ns">
    <!-- Generator: Sketch 3.3.3 (12081) - http://www.bohemiancoding.com/sketch -->
    <title>Untitled</title>
    <desc>Created with Sketch.</desc>
    <defs></defs>
    <g id="Page-1" stroke="none" stroke-width="1" fill="none" fill-rule="evenodd" sketch:type="MSPage">
        <g id="hotels" sketch:type="MSLayerGroup" fill="#0A0A08">
            <path d="M122.88,153.6 C121.173,153.6 120.32,153.6 118.613,152.747 C114.347,150.187 113.493,145.067 115.2,140.8 C145.067,90.453 198.827,59.733 256,59.733 C261.12,59.733 264.533,63.147 264.533,68.267 C264.533,73.387 261.12,76.8 256,76.8 C204.8,76.8 156.16,104.96 130.56,149.333 C128.853,151.893 126.293,153.6 122.88,153.6" id="Fill-10" sketch:type="MSShapeGroup"></path>
            <path d="M59.733,469.333 L170.667,469.333 C186.88,469.333 203.947,468.48 220.16,465.92 L332.8,448.853 C336.213,448.853 338.773,448.853 342.187,448 L343.04,448 C349.867,447.147 355.84,443.733 361.813,438.613 L362.667,437.76 L492.373,337.067 C495.787,334.507 495.787,329.387 494.08,326.827 C487.253,316.587 483.84,312.32 448,330.24 L374.613,375.467 C354.987,385.707 317.44,386.56 277.333,385.707 L273.067,385.707 L261.973,385.707 L262.827,368.64 L272.213,368.64 C283.307,367.787 293.547,366.08 296.107,361.813 C296.96,360.107 296.107,354.987 292.693,349.867 C281.6,332.8 263.68,324.267 244.053,324.267 L210.773,324.267 C189.44,324.267 168.107,317.44 151.893,305.493 C128,286.72 80.213,314.027 59.733,328.533 L59.733,469.333 L59.733,469.333 Z M170.667,486.4 L42.667,486.4 L42.667,320 L46.08,317.44 C49.493,314.88 121.173,260.267 162.133,290.987 C175.787,301.227 192.853,306.347 210.773,306.347 L244.053,306.347 C268.8,306.347 291.84,318.293 305.493,337.92 C313.173,349.013 314.88,358.4 310.613,366.08 C331.947,366.08 354.987,364.373 365.227,358.4 L438.613,313.173 C476.16,293.547 491.52,293.547 506.88,314.027 C514.56,324.267 512.853,339.627 502.613,348.16 L373.76,450.56 C365.227,458.24 355.84,463.36 345.6,465.067 C342.187,465.92 337.92,466.773 333.653,466.773 L222.72,483.84 C205.653,484.693 187.733,486.4 170.667,486.4 L170.667,486.4 Z" id="Fill-1" sketch:type="MSShapeGroup"></path>
            <path d="M17.067,494.933 L42.667,494.933 L42.667,307.2 L17.067,307.2 L17.067,494.933 Z M0,290.133 L59.733,290.133 L59.733,512 L0,512 L0,290.133 Z" id="Fill-3" sketch:type="MSShapeGroup"></path>
            <path d="M151.893,411.307 C146.773,411.307 143.36,407.893 143.36,402.773 C143.36,381.44 159.573,368.64 186.027,368.64 L268.8,368.64 C273.92,368.64 277.333,372.053 277.333,377.173 C277.333,382.293 273.92,385.707 268.8,385.707 L186.027,385.707 C160.427,385.707 160.427,398.507 160.427,402.773 C160.427,407.893 157.013,411.307 151.893,411.307" id="Fill-5" sketch:type="MSShapeGroup"></path>
            <path d="M77.653,256 L434.347,256 L452.267,230.4 L59.733,230.4 L77.653,256 L77.653,256 Z M438.613,273.067 L73.387,273.067 C70.827,273.067 68.267,271.36 66.56,269.653 L35.84,226.987 C34.133,224.427 34.133,221.013 34.987,218.453 C35.84,215.893 39.253,213.333 42.667,213.333 L469.333,213.333 C472.747,213.333 475.307,215.04 477.013,217.6 C478.72,220.16 477.867,223.573 476.16,226.133 L445.44,268.8 C444.587,271.36 442.027,273.067 438.613,273.067 L438.613,273.067 Z" id="Fill-6" sketch:type="MSShapeGroup"></path>
            <path d="M256,42.667 C250.88,42.667 247.467,39.253 247.467,34.133 L247.467,8.533 C247.467,3.413 250.88,0 256,0 C261.12,0 264.533,3.413 264.533,8.533 L264.533,34.133 C264.533,39.253 261.12,42.667 256,42.667" id="Fill-7" sketch:type="MSShapeGroup"></path>
            <path d="M281.6,17.067 L230.4,17.067 C225.28,17.067 221.867,13.653 221.867,8.533 C221.867,3.413 225.28,0 230.4,0 L281.6,0 C286.72,0 290.133,3.413 290.133,8.533 C290.133,13.653 286.72,17.067 281.6,17.067" id="Fill-8" sketch:type="MSShapeGroup"></path>
            <path d="M76.8,213.333 L435.2,213.333 C430.933,118.613 352.427,42.667 256,42.667 C160.427,42.667 81.92,118.613 76.8,213.333 L76.8,213.333 Z M443.733,230.4 L68.267,230.4 C63.147,230.4 59.733,226.987 59.733,221.867 C59.733,113.493 147.627,25.6 256,25.6 C364.373,25.6 452.267,113.493 452.267,221.867 C452.267,226.987 448.853,230.4 443.733,230.4 L443.733,230.4 Z" id="Fill-9" sketch:type="MSShapeGroup"></path>
        </g>
    </g>
</svg>