<?xml version="1.0" encoding="UTF-8"?>
<svg width="496px" height="504px" viewBox="0 0 496 504" version="1.1" xmlns="http://www.w3.org/2000/svg" xmlns:xlink="http://www.w3.org/1999/xlink" xmlns:sketch="http://www.bohemiancoding.com/sketch/ns">
    <!-- Generator: Sketch 3.3.3 (12081) - http://www.bohemiancoding.com/sketch -->
    <title>Untitled 7</title>
    <desc>Created with Sketch.</desc>
    <defs>
        <path id="path-1" d="M0.06,503.94 L495.213,503.94 L495.213,0.393 L0.06,0.393 L0.06,503.94 Z"></path>
        <path id="path-3" d="M0.06,503.94 L495.213,503.94 L495.213,0.393 L0.06,0.393"></path>
    </defs>
    <g id="Page-1" stroke="none" stroke-width="1" fill="none" fill-rule="evenodd" sketch:type="MSPage">
        <g id="hotels" sketch:type="MSLayerGroup">
            <g id="Group-5">
                <mask id="mask-2" sketch:name="Clip 2" fill="white">
                    <use xlink:href="#path-1"></use>
                </mask>
                <g id="Clip-2"></g>
                <path d="M76.38,453.639 L477.587,453.639 L454.925,226.177 C454.925,221.98 450.728,218.622 446.531,218.622 L107.436,218.622 C103.239,218.622 99.882,221.98 99.043,226.177 L76.38,453.639 L76.38,453.639 Z M486.82,470.426 L67.148,470.426 C64.63,470.426 62.111,469.586 61.272,467.908 C59.593,466.229 58.754,463.711 58.754,461.193 L82.256,224.498 C83.095,211.908 94.007,201.836 107.436,201.836 L446.531,201.836 C459.961,201.836 470.033,211.908 471.711,224.498 L495.213,461.193 C495.213,463.711 494.374,466.229 492.695,467.908 C491.856,469.586 489.338,470.426 486.82,470.426 L486.82,470.426 Z" id="Fill-1" fill="#0A0A08" sketch:type="MSShapeGroup" mask="url(#mask-2)"></path>
                <path d="M109.115,470.426 C104.079,470.426 100.721,473.783 100.721,478.819 C100.721,483.855 104.079,487.213 109.115,487.213 C114.151,487.213 117.508,483.855 117.508,478.819 C117.508,473.783 114.151,470.426 109.115,470.426 L109.115,470.426 Z M109.115,504 C94.846,504 83.934,493.088 83.934,478.819 C83.934,464.55 94.846,453.639 109.115,453.639 C123.384,453.639 134.295,464.55 134.295,478.819 C134.295,493.088 123.384,504 109.115,504 L109.115,504 Z" id="Fill-3" fill="#0A0A08" sketch:type="MSShapeGroup" mask="url(#mask-2)"></path>
                <path d="M444.852,470.426 C439.816,470.426 436.459,473.783 436.459,478.819 C436.459,483.855 439.816,487.213 444.852,487.213 C449.888,487.213 453.246,483.855 453.246,478.819 C453.246,473.783 449.888,470.426 444.852,470.426 L444.852,470.426 Z M444.852,504 C430.584,504 419.672,493.088 419.672,478.819 C419.672,464.55 430.584,453.639 444.852,453.639 C459.121,453.639 470.033,464.55 470.033,478.819 C470.033,493.088 459.121,504 444.852,504 L444.852,504 Z" id="Fill-4" fill="#0A0A08" sketch:type="MSShapeGroup" mask="url(#mask-2)"></path>
            </g>
            <path d="M83.934,302.557 L41.967,302.557 C36.931,302.557 33.574,299.2 33.574,294.163 C33.574,289.127 36.931,285.77 41.967,285.77 L83.934,285.77 C88.971,285.77 92.328,289.127 92.328,294.163 C92.328,299.2 88.971,302.557 83.934,302.557" id="Fill-6" fill="#0A0A08" sketch:type="MSShapeGroup"></path>
            <g id="Group-10">
                <mask id="mask-4" sketch:name="Clip 8" fill="white">
                    <use xlink:href="#path-3"></use>
                </mask>
                <g id="Clip-8"></g>
                <path d="M41.967,302.557 C37.771,302.557 34.413,300.039 33.574,295.842 L16.787,211.908 C15.948,207.711 18.466,202.675 23.502,201.836 C27.698,200.996 32.734,203.514 33.574,208.55 L50.361,292.485 C51.2,296.682 48.682,301.718 43.646,302.557 L41.967,302.557" id="Fill-7" fill="#0A0A08" sketch:type="MSShapeGroup" mask="url(#mask-4)"></path>
                <path d="M25.18,218.622 L8.393,218.622 C3.357,218.622 0,215.265 0,210.229 C0,205.193 3.357,201.836 8.393,201.836 L25.18,201.836 C30.216,201.836 33.574,205.193 33.574,210.229 C33.574,215.265 30.216,218.622 25.18,218.622" id="Fill-9" fill="#0A0A08" sketch:type="MSShapeGroup" mask="url(#mask-4)"></path>
            </g>
            <g id="Group-21" transform="translate(117.000000, 0.000000)" fill="#0A0A08" sketch:type="MSShapeGroup">
                <path d="M30.725,201.836 L289.243,201.836 L297.636,185.049 L22.331,185.049 L30.725,201.836 L30.725,201.836 Z M294.279,218.622 L25.689,218.622 C22.331,218.622 19.813,216.944 18.134,213.586 L1.348,180.013 C-0.331,177.495 0.508,174.137 1.348,171.619 C3.026,169.101 5.544,167.422 8.902,167.422 L311.066,167.422 C313.584,167.422 316.941,169.101 318.62,171.619 C320.298,174.137 320.298,177.495 318.62,180.013 L301.833,213.586 C300.154,216.944 297.636,218.622 294.279,218.622 L294.279,218.622 Z" id="Fill-11"></path>
                <path d="M25.689,168.262 L294.279,168.262 C290.082,97.757 231.328,42.36 159.984,42.36 C88.639,42.36 30.725,97.757 25.689,168.262 L25.689,168.262 Z M302.672,185.049 L17.295,185.049 C12.259,185.049 8.902,181.691 8.902,176.655 C8.902,93.56 76.889,25.573 159.984,25.573 C243.079,25.573 311.066,93.56 311.066,176.655 C311.066,181.691 307.708,185.049 302.672,185.049 L302.672,185.049 Z" id="Fill-12"></path>
                <path d="M55.905,151.475 L53.387,151.475 C49.19,149.796 46.672,145.6 48.351,140.563 C64.298,91.882 108.784,59.147 159.984,59.147 C165.02,59.147 168.377,62.505 168.377,67.541 C168.377,72.577 165.02,75.934 159.984,75.934 C116.338,75.934 77.728,103.632 64.298,145.6 C63.459,148.957 60.102,151.475 55.905,151.475" id="Fill-13"></path>
                <path d="M159.984,42.36 C154.948,42.36 151.59,39.003 151.59,33.967 L151.59,8.786 C151.59,3.75 154.948,0.393 159.984,0.393 C165.02,0.393 168.377,3.75 168.377,8.786 L168.377,33.967 C168.377,39.003 165.02,42.36 159.984,42.36" id="Fill-14"></path>
                <path d="M185.164,17.18 L134.803,17.18 C129.767,17.18 126.41,12.983 126.41,8.786 C126.41,3.75 129.767,0.393 134.803,0.393 L185.164,0.393 C190.2,0.393 193.557,4.59 193.557,8.786 C193.557,13.823 190.2,17.18 185.164,17.18" id="Fill-15"></path>
                <path d="M159.984,470.426 C154.948,470.426 151.59,467.068 151.59,462.032 L151.59,327.737 C151.59,322.701 154.948,319.344 159.984,319.344 C165.02,319.344 168.377,322.701 168.377,327.737 L168.377,462.032 C168.377,467.068 165.02,470.426 159.984,470.426" id="Fill-16"></path>
                <path d="M84.443,470.426 L84.443,470.426 C79.407,470.426 76.049,466.229 76.049,461.193 L84.443,326.898 C84.443,321.862 88.639,318.504 93.675,319.344 C98.711,319.344 102.069,323.541 101.229,328.577 L92.836,462.872 C92.836,467.068 88.639,470.426 84.443,470.426" id="Fill-17"></path>
                <path d="M8.902,470.426 L8.062,470.426 C3.866,469.586 0.508,465.39 0.508,461.193 L17.295,326.898 C18.134,322.701 22.331,319.344 26.528,319.344 C30.725,320.183 34.082,324.38 34.082,328.577 L17.295,462.872 C16.456,467.068 13.098,470.426 8.902,470.426" id="Fill-18"></path>
                <path d="M235.525,470.426 C231.328,470.426 227.131,467.068 227.131,462.872 L218.738,328.577 C218.738,323.541 222.095,320.183 226.292,319.344 C230.489,319.344 234.685,322.701 235.525,326.898 L243.918,461.193 C243.918,466.229 240.561,470.426 235.525,470.426" id="Fill-19"></path>
                <path d="M311.066,470.426 C306.869,470.426 303.511,467.068 302.672,462.872 L285.885,328.577 C285.046,324.38 288.403,320.183 293.439,319.344 C298.475,318.504 301.833,321.862 302.672,326.898 L319.459,461.193 C320.298,465.39 316.941,469.586 311.905,470.426 L311.066,470.426" id="Fill-20"></path>
            </g>
        </g>
    </g>
</svg>