<?xml version="1.0" encoding="UTF-8"?>
<svg width="16427px" height="5495px" viewBox="0 0 16427 5495" version="1.1" xmlns="http://www.w3.org/2000/svg" xmlns:xlink="http://www.w3.org/1999/xlink" xmlns:sketch="http://www.bohemiancoding.com/sketch/ns">
    <!-- Generator: Sketch 3.3.3 (12081) - http://www.bohemiancoding.com/sketch -->
    <title>Untitled 4</title>
    <desc>Created with Sketch.</desc>
    <defs></defs>
    <g id="Page-1" stroke="none" stroke-width="1" fill="none" fill-rule="evenodd" sketch:type="MSPage">
        <path d="M16143,2333 L14512,2333 L14512,3441 L16427,3441 L16427,4126 L13662,4126 L13662,0 L16421,0 L16421,690 L14512,690 L14512,1671 L16143,1671 L16143,2333 L16143,2333 Z M8801,5317 L8039,4975 L8039,4087 C8414,4049 8718,3922 8951,3705 C9234,3442 9375,3084 9375,2633 L9375,0 L8522,0 L8522,2660 C8522,3162 8271,3414 7794,3414 C7565,3414 7386,3351 7257,3228 C7128,3105 7062,2907 7062,2637 L7062,0 L6212,0 L6212,2664 C6212,3110 6363,3462 6646,3716 C6875,3922 7171,4045 7531,4085 L7531,4975 L6808,5317 L6808,5494 L8801,5494 L8801,5317 L8801,5317 Z M9281,5201 L9450,5184 C9460,5240 9481,5282 9512,5308 C9543,5335 9584,5348 9637,5348 C9693,5348 9735,5336 9763,5313 C9791,5289 9805,5262 9805,5230 C9805,5210 9799,5192 9787,5178 C9776,5164 9755,5151 9725,5141 C9705,5134 9659,5121 9587,5103 C9494,5080 9429,5052 9392,5018 C9339,4971 9313,4913 9313,4845 C9313,4801 9326,4760 9350,4721 C9375,4683 9411,4654 9457,4634 C9504,4614 9560,4604 9626,4604 C9733,4604 9814,4628 9868,4676 C9923,4724 9951,4787 9954,4867 L9780,4873 C9773,4829 9757,4797 9733,4777 C9708,4758 9672,4748 9624,4748 C9574,4748 9534,4759 9506,4779 C9488,4793 9479,4811 9479,4833 C9479,4853 9487,4871 9505,4885 C9526,4904 9579,4923 9664,4943 C9748,4963 9810,4984 9850,5005 C9891,5026 9922,5055 9945,5092 C9968,5129 9979,5175 9979,5229 C9979,5278 9966,5324 9938,5367 C9911,5410 9872,5442 9822,5463 C9772,5484 9710,5495 9635,5495 C9527,5495 9443,5470 9385,5419 C9327,5369 9292,5296 9281,5201 L9281,5201 Z M10460,5479 L10460,4620 L11096,4620 L11096,4765 L10634,4765 L10634,4956 L11064,4956 L11064,5101 L10634,5101 L10634,5334 L11113,5334 L11113,5479 L10460,5479 L10460,5479 Z M11594,5479 L11594,4620 L11960,4620 C12051,4620 12118,4628 12160,4643 C12202,4658 12235,4686 12260,4725 C12285,4765 12297,4810 12297,4861 C12297,4925 12279,4978 12241,5020 C12203,5062 12147,5089 12071,5100 C12109,5122 12140,5146 12164,5172 C12188,5198 12221,5245 12262,5311 L12367,5479 L12160,5479 L12035,5291 C11991,5225 11960,5183 11943,5165 C11927,5148 11910,5136 11891,5130 C11873,5123 11843,5120 11803,5120 L11768,5120 L11768,5479 L11594,5479 L11594,5479 Z M11768,4983 L11897,4983 C11980,4983 12032,4980 12052,4973 C12073,4966 12089,4954 12101,4936 C12113,4919 12119,4898 12119,4872 C12119,4843 12111,4820 12095,4802 C12080,4784 12058,4773 12030,4768 C12016,4766 11974,4765 11904,4765 L11768,4765 L11768,4983 L11768,4983 Z M12992,5479 L12685,4620 L12873,4620 L13091,5256 L13301,4620 L13486,4620 L13180,5479 L12992,5479 L12992,5479 Z M13901,5479 L13901,4620 L14075,4620 L14075,5479 L13901,5479 L13901,5479 Z M15123,5162 L15291,5214 C15265,5308 15222,5379 15162,5425 C15102,5470 15026,5493 14934,5493 C14820,5493 14726,5454 14652,5376 C14579,5298 14542,5192 14542,5056 C14542,4913 14579,4802 14653,4723 C14727,4644 14824,4604 14944,4604 C15050,4604 15135,4635 15201,4698 C15240,4734 15269,4787 15289,4856 L15117,4897 C15107,4853 15086,4817 15053,4792 C15021,4766 14982,4753 14936,4753 C14872,4753 14820,4776 14781,4822 C14741,4867 14721,4941 14721,5044 C14721,5152 14741,5229 14780,5275 C14819,5322 14870,5345 14932,5345 C14978,5345 15018,5330 15051,5301 C15085,5271 15109,5225 15123,5162 L15123,5162 Z M15774,5479 L15774,4620 L16410,4620 L16410,4765 L15948,4765 L15948,4956 L16377,4956 L16377,5101 L15948,5101 L15948,5334 L16426,5334 L16426,5479 L15774,5479 L15774,5479 Z M2482,2437 L850,2437 L850,4126 L0,4126 L0,0 L2686,0 L2686,690 L850,690 L850,1752 L2482,1752 L2482,2437 L2482,2437 Z M4029,3441 L5833,3441 L5833,4126 L3179,4126 L3179,0 L4029,0 L4029,3441 L4029,3441 Z M13177,690 L11913,690 L11913,4126 L11063,4126 L11063,690 L9817,690 L9817,0 L13177,0 L13177,690 L13177,690 Z" id="logo" fill="#A70105" sketch:type="MSShapeGroup"></path>
    </g>
</svg>