<?xml version="1.0" encoding="UTF-8"?>
<svg width="591px" height="591px" viewBox="0 0 591 591" version="1.1" xmlns="http://www.w3.org/2000/svg" xmlns:xlink="http://www.w3.org/1999/xlink" xmlns:sketch="http://www.bohemiancoding.com/sketch/ns">
    <!-- Generator: Sketch 3.3.3 (12081) - http://www.bohemiancoding.com/sketch -->
    <title>Untitled</title>
    <desc>Created with Sketch.</desc>
    <defs></defs>
    <g id="Page-1" stroke="none" stroke-width="1" fill="none" fill-rule="evenodd" sketch:type="MSPage">
        <path d="M474.9423,590.129 C450.349,590.129 420.7229,583.931 388.1715,571.6344 C316.6971,544.7106 239.0496,491.4581 169.3106,421.8183 C99.59646,352.1042 46.41833,274.3327 19.39542,202.8583 C-5.09875,137.9785 -5.09875,84.6269 19.19708,60.2071 C22.79188,56.7363 26.36188,52.9431 30.05583,49.0756 C52.31875,25.6475 78.07729,-0.9044 110.8271,0.5583 C133.8585,1.426 156.1463,15.7556 179.0042,44.1421 C246.3135,127.9131 215.9933,157.7375 180.8388,192.3963 L174.5417,198.5942 C168.8396,204.321 157.9808,230.9473 259.0813,332.0477 C292.1038,365.0702 320.1927,389.1925 342.7531,403.8196 C356.8844,413.0173 382.1719,426.9502 392.5348,416.4881 L398.8319,410.191 C433.3915,375.1356 463.315,344.8402 547.086,412.224 C575.4725,434.9827 589.7029,457.2704 590.6698,480.3267 C592.0333,513.6219 565.4071,538.9094 541.9542,561.1723 C538.1858,564.8663 534.4175,568.3371 530.9219,571.8327 C518.7244,584.0302 499.3621,590.129 474.9423,590.129 L474.9423,590.129 Z M108.4967,20.3173 C84.77104,20.3173 63.37583,42.7785 44.48458,62.7358 C40.61708,66.7025 36.92313,70.6692 33.25396,74.264 C15.13125,92.3619 16.99063,140.2098 37.98917,195.8919 C63.94604,264.8375 115.5623,340.0802 183.3427,407.7862 C251.1479,475.5667 326.2915,527.1829 395.1379,553.1398 C450.9192,574.1631 498.6679,575.9977 516.8898,557.8006 C520.4598,554.2058 524.3273,550.5367 528.3188,546.7435 C548.7471,527.3813 571.7785,505.391 570.8117,481.0952 C570.1423,464.336 557.9448,446.3125 534.591,427.6444 C464.7777,371.5656 445.3163,391.4238 412.9631,424.1488 L406.5669,430.545 C391.1712,446.0398 366.1069,442.6433 331.9192,420.4796 C308.2927,405.0592 279.0385,379.9948 245.0492,346.0054 C161.179,262.1352 134.2552,210.7917 160.6088,184.4629 L166.881,178.265 C199.8292,145.8127 219.5633,126.3513 163.5094,56.5379 C144.7173,33.1842 126.6938,20.9867 110.0337,20.3173 L108.4967,20.3173 Z M566.9442,280.0348 C565.6798,280.0348 564.4402,279.8612 563.1758,279.3654 C558.1431,277.3325 555.6144,271.5313 557.7465,266.4985 C584.8685,199.6602 569.3738,123.649 518.4269,72.7021 C466.1413,20.3173 385.6675,5.6902 318.259,36.2088 C313.2262,38.316 307.4002,36.2088 305.0946,31.1513 C302.8633,26.2177 305.0946,20.3173 310.0281,18.086 C384.9733,-15.8042 474.3721,0.4592 532.4837,58.67 C589.1327,115.2198 606.1646,199.7594 576.1419,273.936 C574.6048,277.7292 570.8117,280.0348 566.9442,280.0348 Z M478.4379,244.1117 C477.1735,244.1117 475.9092,243.9133 474.6448,243.4423 C469.6121,241.3102 467.1081,235.5833 469.2402,230.5506 C481.8344,199.4619 474.5704,164.0346 450.9192,140.2098 C426.5242,115.8892 389.0392,109.121 357.5785,123.2523 C352.645,125.4835 346.7198,123.2523 344.4885,118.3187 C342.2821,113.286 344.4142,107.3856 349.4469,105.1544 C388.3698,87.5275 434.755,96.0558 464.8769,126.2521 C494.3046,155.6054 503.2296,199.4619 487.5365,238.0129 C485.9746,241.7812 482.3054,244.1117 478.4379,244.1117 Z" id="Fill-1" fill="#000000" sketch:type="MSShapeGroup"></path>
    </g>
</svg>