<?xml version="1.0" encoding="UTF-8"?>
<svg width="158px" height="165px" viewBox="0 0 158 165" version="1.1" xmlns="http://www.w3.org/2000/svg" xmlns:xlink="http://www.w3.org/1999/xlink" xmlns:sketch="http://www.bohemiancoding.com/sketch/ns">
    <!-- Generator: Sketch 3.3.3 (12081) - http://www.bohemiancoding.com/sketch -->
    <title>Untitled 9</title>
    <desc>Created with Sketch.</desc>
    <defs></defs>
    <g id="Page-1" stroke="none" stroke-width="1" fill="none" fill-rule="evenodd" sketch:type="MSPage">
        <g id="pizzeria" sketch:type="MSLayerGroup" fill="#000000">
            <path d="M157.328,87.847 C157.105,87.09 151.535,69 120.004,37.472 C88.473,5.941 70.383,0.371 69.629,0.148 C68.191,-0.274 66.68,0.437 66.086,1.804 L0.246,153.343 C-0.238,154.453 0.008,155.75 0.867,156.609 C1.723,157.465 3.02,157.718 4.133,157.23 L35.309,143.687 L35.309,145.781 C35.309,151.488 39.953,156.132 45.656,156.132 C51.359,156.132 56,151.488 56,145.781 L56,134.695 L67.824,129.558 L67.824,154.648 C67.824,160.355 72.469,165 78.172,165 C83.875,165 88.516,160.355 88.516,154.648 L88.516,120.57 L155.672,91.39 C157.039,90.797 157.746,89.277 157.328,87.847 L157.328,87.847 Z M84.383,115.918 C83.305,116.386 82.605,117.453 82.605,118.629 L82.605,154.648 C82.605,157.097 80.613,159.086 78.172,159.086 C75.727,159.086 73.738,157.093 73.738,154.648 L73.738,125.05 C73.738,124.054 73.234,123.125 72.402,122.578 C71.91,122.257 71.348,122.097 70.781,122.097 C70.379,122.097 69.98,122.175 69.602,122.343 L51.867,130.047 C50.789,130.515 50.09,131.582 50.09,132.757 L50.09,145.781 C50.09,148.23 48.102,150.218 45.656,150.218 C43.211,150.218 41.223,148.226 41.223,145.781 L41.223,139.179 C41.223,138.183 40.719,137.254 39.887,136.707 C39.055,136.16 38,136.074 37.09,136.468 L8.656,148.824 L61.273,27.718 C63.93,27.398 71.332,27.328 78.125,34.812 C81.988,39.074 83.977,42.797 85.734,46.082 C88.238,50.773 90.402,54.828 96.508,56.16 L97.984,56.476 C105.43,58.066 111.312,59.324 116.676,68.402 C118.711,71.843 120.566,75.675 122.363,79.379 C125.512,85.875 128.34,91.664 131.875,95.285 L84.383,115.918 Z M137.953,92.644 C134.406,90.656 130.988,83.621 127.684,76.8 C125.836,72.988 123.926,69.047 121.766,65.394 C115.082,54.086 107.02,52.359 99.219,50.695 L97.77,50.382 C94.461,49.66 93.355,47.804 90.949,43.297 C89.125,39.886 86.859,35.64 82.5,30.84 C75.855,23.519 68.59,21.886 63.871,21.734 L70.375,6.765 C76.102,9.289 91.867,17.695 115.824,41.652 C139.633,65.461 148.133,81.347 150.695,87.105 L137.953,92.644 Z" id="Fill-1" sketch:type="MSShapeGroup"></path>
            <path d="M64.867,61.543 C56.719,61.543 50.09,68.172 50.09,76.32 C50.09,84.472 56.719,91.101 64.867,91.101 C73.02,91.101 79.648,84.472 79.648,76.32 C79.648,68.172 73.016,61.543 64.867,61.543 L64.867,61.543 Z M64.867,85.187 C59.98,85.187 56,81.211 56,76.32 C56,71.429 59.977,67.453 64.867,67.453 C69.758,67.453 73.738,71.429 73.738,76.32 C73.738,81.211 69.758,85.187 64.867,85.187 L64.867,85.187 Z" id="Fill-4" sketch:type="MSShapeGroup"></path>
            <path d="M44.176,99.968 C37.656,99.968 32.352,105.273 32.352,111.793 C32.352,118.312 37.656,123.617 44.176,123.617 C50.695,123.617 56,118.312 56,111.793 C56,105.273 50.695,99.968 44.176,99.968 L44.176,99.968 Z M44.176,117.703 C40.918,117.703 38.266,115.05 38.266,111.793 C38.266,108.531 40.914,105.879 44.176,105.879 C47.438,105.879 50.09,108.531 50.09,111.793 C50.09,115.05 47.438,117.703 44.176,117.703 L44.176,117.703 Z" id="Fill-5" sketch:type="MSShapeGroup"></path>
            <path d="M101.816,67.453 C92.852,67.453 85.559,74.746 85.559,83.711 C85.559,92.675 92.852,99.968 101.816,99.968 C110.781,99.968 118.074,92.675 118.074,83.711 C118.074,74.746 110.781,67.453 101.816,67.453 L101.816,67.453 Z M101.816,94.054 C96.113,94.054 91.473,89.414 91.473,83.711 C91.473,78.007 96.113,73.363 101.816,73.363 C107.523,73.363 112.164,78.007 112.164,83.711 C112.164,89.414 107.523,94.054 101.816,94.054 L101.816,94.054 Z" id="Fill-6" sketch:type="MSShapeGroup"></path>
        </g>
    </g>
</svg>