<?xml version="1.0" encoding="UTF-8"?>
<svg width="32px" height="32px" viewBox="0 0 32 32" version="1.1" xmlns="http://www.w3.org/2000/svg" xmlns:xlink="http://www.w3.org/1999/xlink" xmlns:sketch="http://www.bohemiancoding.com/sketch/ns">
    <!-- Generator: Sketch 3.3.3 (12081) - http://www.bohemiancoding.com/sketch -->
    <title>Untitled 2</title>
    <desc>Created with Sketch.</desc>
    <defs></defs>
    <g id="Page-1" stroke="none" stroke-width="1" fill="none" fill-rule="evenodd" sketch:type="MSPage">
        <path d="M29.859,7.999 C25.441,0.346 15.656,-2.279 8.004,2.143 C0.352,6.557 -2.273,16.346 2.148,23.999 C6.562,31.651 16.352,34.272 24.004,29.854 C31.656,25.436 34.277,15.651 29.859,7.999 L29.859,7.999 Z M22.402,27.081 C16.281,30.616 8.453,28.518 4.918,22.397 C1.383,16.276 3.48,8.448 9.602,4.913 C15.723,1.378 23.555,3.475 27.086,9.596 C30.621,15.718 28.523,23.546 22.402,27.081 L22.402,27.081 Z M21.762,15.346 L13.383,10.46 C12.621,10.014 12.004,10.37 12.008,11.253 L12.051,20.952 C12.055,21.839 12.68,22.198 13.445,21.753 L21.758,16.952 C22.523,16.511 22.527,15.792 21.762,15.346 L21.762,15.346 Z" id="play-button" fill="#000000" sketch:type="MSShapeGroup"></path>
    </g>
</svg>