<?xml version="1.0" encoding="UTF-8"?>
<svg width="165px" height="180px" viewBox="0 0 165 180" version="1.1" xmlns="http://www.w3.org/2000/svg" xmlns:xlink="http://www.w3.org/1999/xlink" xmlns:sketch="http://www.bohemiancoding.com/sketch/ns">
    <!-- Generator: Sketch 3.3.3 (12081) - http://www.bohemiancoding.com/sketch -->
    <title>Slice 1</title>
    <desc>Created with Sketch.</desc>
    <defs></defs>
    <g id="Page-1" stroke="none" stroke-width="1" fill="none" fill-rule="evenodd" sketch:type="MSPage">
        <g id="compass" sketch:type="MSLayerGroup" fill="#D80027">
            <path d="M115.094521,139.964414 C113.994638,138.76418 112.131543,138.684727 110.933011,139.786172 C108.113266,142.378242 105.147479,144.877148 102.117096,147.212578 C100.82834,148.206094 100.58716,150.057773 101.579617,151.349063 C102.159926,152.104219 103.03267,152.499727 103.915947,152.499727 C104.542596,152.499727 105.174511,152.300039 105.709883,151.887305 C108.874723,149.448164 111.972511,146.838867 114.916883,144.131484 C116.115064,143.030391 116.194755,141.164648 115.094521,139.964414 L115.094521,139.964414 Z" id="Shape" sketch:type="MSShapeGroup"></path>
            <path d="M130.610138,122.241094 C129.319628,121.249336 127.470574,121.492617 126.479872,122.784609 C124.149511,125.824219 121.658011,128.798086 119.074883,131.622539 C117.976053,132.823828 118.057851,134.68957 119.257436,135.789961 C119.823,136.308164 120.535309,136.564453 121.246213,136.564453 C122.043479,136.564453 122.838287,136.242422 123.418596,135.607148 C126.116872,132.656836 128.718957,129.551484 131.152532,126.376875 C132.143585,125.084883 131.900298,123.232852 130.610138,122.241094 L130.610138,122.241094 Z" id="Shape" sketch:type="MSShapeGroup"></path>
            <path d="M96.7602128,154.740234 C95.8839574,153.367734 94.0626383,152.966953 92.6920851,153.844453 C89.468617,155.90918 86.1159574,157.85543 82.7278404,159.629414 C81.2867234,160.384219 80.728883,162.166289 81.482617,163.610156 C82.0088617,164.617383 83.0339681,165.193594 84.094883,165.193594 C84.5547766,165.193594 85.0216915,165.085312 85.4577128,164.8575 C88.9967872,163.004414 92.499,160.971328 95.8660532,158.814492 C97.2362553,157.936289 97.6368191,156.112383 96.7602128,154.740234 L96.7602128,154.740234 Z" id="Shape" sketch:type="MSShapeGroup"></path>
            <path d="M76.1485532,166.110469 C75.5240106,164.606484 73.8006383,163.894922 72.2984362,164.519648 C68.7649787,165.991289 65.1251489,167.321953 61.4811064,168.476484 C59.9297553,168.967617 59.0703511,170.624531 59.5604362,172.178086 C59.9578404,173.435273 61.1174043,174.239297 62.3678936,174.239297 C62.6620851,174.239297 62.9611915,174.195 63.2564362,174.101133 C67.0644255,172.895273 70.8678511,171.504492 74.5599894,169.966758 C76.0618404,169.341328 76.7734468,167.614805 76.1485532,166.110469 L76.1485532,166.110469 Z" id="Shape" sketch:type="MSShapeGroup"></path>
            <path d="M53.8725,173.707734 C53.520383,172.117617 51.9465638,171.114961 50.3590532,171.467578 C46.6304043,172.296211 42.8143404,172.970508 39.017234,173.471133 C37.4047979,173.683828 36.2694574,175.165664 36.4818511,176.780391 C36.6770426,178.264688 37.9426277,179.345039 39.3981383,179.345039 C39.5262766,179.345039 39.6561702,179.336953 39.7864149,179.319375 C43.7530851,178.79625 47.7394149,178.09207 51.6351702,177.226172 C53.223383,176.873555 54.2253191,175.298203 53.8725,173.707734 L53.8725,173.707734 Z" id="Shape" sketch:type="MSShapeGroup"></path>
            <path d="M155.925351,57.0111328 C154.312213,56.80125 152.834234,57.9392578 152.623947,59.5543359 C152.128596,63.3585937 151.460872,67.1807812 150.637628,70.9147266 C150.286915,72.5055469 151.290606,74.0794922 152.87917,74.4307031 C153.093319,74.4778125 153.306415,74.5006641 153.516351,74.5006641 C154.867947,74.5006641 156.086489,73.5626953 156.389809,72.1863281 C157.249564,68.2846875 157.94783,64.2912891 158.464947,60.3175781 C158.675234,58.7017969 157.538138,57.2213672 155.925351,57.0111328 L155.925351,57.0111328 Z" id="Shape" sketch:type="MSShapeGroup"></path>
            <path d="M142.829617,102.096563 C141.387798,101.343516 139.608957,101.904258 138.856628,103.348828 C137.091128,106.742109 135.151149,110.102344 133.091457,113.336719 C132.216957,114.709922 132.62033,116.533477 133.991585,117.40957 C134.482021,117.723164 135.030734,117.872578 135.572426,117.872578 C136.545223,117.872578 137.496606,117.390586 138.05866,116.508516 C140.209628,113.130352 142.235617,109.62 144.080457,106.075547 C144.832436,104.630625 144.272138,102.849609 142.829617,102.096563 L142.829617,102.096563 Z" id="Shape" sketch:type="MSShapeGroup"></path>
            <path d="M151.359064,80.1298828 C149.805957,79.6408594 148.1535,80.5039453 147.66517,82.0578516 C146.517191,85.7105859 145.192628,89.3573438 143.72834,92.8961719 C143.105553,94.4012109 143.818915,96.1263281 145.321819,96.7503516 C145.690436,96.9032813 146.072394,96.9757031 146.448032,96.9757031 C147.603383,96.9757031 148.700106,96.2901563 149.170181,95.1546094 C150.700117,91.4561719 152.084713,87.6455859 153.284649,83.8283203 C153.772277,82.2751172 152.910766,80.6189063 151.359064,80.1298828 L151.359064,80.1298828 Z" id="Shape" sketch:type="MSShapeGroup"></path>
            <path d="M163.461287,41.3954297 L144.629521,28.8235547 C144.625309,28.8207422 144.620745,28.8175781 144.616532,28.8147656 L144.610915,28.81125 C144.601085,28.8049219 144.590904,28.8 144.581426,28.7936719 C144.509809,28.7472656 144.437138,28.7029687 144.362011,28.6628906 C144.334277,28.648125 144.305489,28.6361719 144.277053,28.6221094 C144.218777,28.5932812 144.160851,28.5648047 144.100819,28.5394922 C144.060447,28.5229687 144.019372,28.5096094 143.978649,28.4944922 C143.9295,28.4769141 143.880702,28.4579297 143.8305,28.4424609 C143.778894,28.4266406 143.727287,28.4153906 143.675681,28.4027344 C143.634606,28.3925391 143.593883,28.3809375 143.552106,28.3728516 C143.488564,28.3601953 143.425021,28.3521094 143.360777,28.3436719 C143.32883,28.3398047 143.297936,28.3334766 143.265638,28.3303125 C143.184191,28.3225781 143.103096,28.3194141 143.021649,28.3180078 C143.007255,28.3173047 142.99216,28.3151953 142.977064,28.3151953 L142.967936,28.3151953 L142.957053,28.3151953 L41.0565638,28.3151953 C38.7690319,25.7333203 35.9682447,23.7076172 32.8223617,22.3544531 L32.8223617,2.94960937 C32.8223617,1.32082031 31.504117,0 29.8769362,0 L17.3099043,0 C15.6827234,0 14.3644787,1.32046875 14.3644787,2.94960937 L14.3644787,22.3533984 C5.82695745,26.0152734 0.226787234,34.3975781 0.226787234,43.8493359 C0.226787234,53.3010938 5.82695745,61.6841016 14.3644787,65.3459766 L14.3644787,157.11082 C14.3644787,158.739609 15.6827234,160.06043 17.3099043,160.06043 L20.7169787,160.06043 L20.6478191,177.038086 C20.6411489,178.666875 21.9544787,179.992969 23.5813085,179.999648 L23.5935957,179.999648 C25.2144574,179.999648 26.532,178.686914 26.5386702,177.062344 L26.6078298,160.060078 L29.8765851,160.060078 C31.503766,160.060078 32.8220106,158.739609 32.8220106,157.110469 L32.8220106,65.3445703 C35.9678936,63.9914062 38.7686809,61.9657031 41.0562128,59.3838281 L142.973904,59.3838281 C142.976011,59.3838281 142.978117,59.3841797 142.980223,59.3841797 C142.988298,59.3841797 142.996372,59.3824219 143.004447,59.3824219 C143.122404,59.3813672 143.237553,59.371875 143.351649,59.3578125 C143.388511,59.3532422 143.42467,59.3472656 143.461181,59.3409375 C143.566851,59.3237109 143.670415,59.3008594 143.771872,59.2723828 C143.791883,59.2667578 143.811894,59.2628906 143.831904,59.2569141 C143.955479,59.2192969 144.07484,59.1728906 144.190691,59.1201562 C144.214915,59.1092578 144.239138,59.0969531 144.263362,59.085 C144.380617,59.0276953 144.495415,58.9647656 144.603543,58.8930469 C144.606,58.8912891 144.608809,58.8902344 144.610915,58.8888281 L144.616532,58.8853125 C144.620745,58.8825 144.625309,58.8793359 144.629521,58.8765234 L163.461287,46.3046484 C164.281021,45.7576172 164.772862,44.836875 164.772862,43.8507422 C164.772862,42.8642578 164.281021,41.9421094 163.461287,41.3954297 L163.461287,41.3954297 Z M20.2553298,5.89886719 L26.9315106,5.89886719 L26.9315106,20.6968359 C24.7198085,20.3797266 22.4670319,20.3797266 20.2553298,20.6968359 L20.2553298,5.89886719 L20.2553298,5.89886719 Z M26.9315106,154.161563 L23.6862766,154.161563 L23.6743404,154.161563 L23.6739894,154.161563 L20.2549787,154.161563 L20.2549787,67.0060547 C21.3576702,67.1653125 22.4722979,67.2489844 23.5928936,67.2489844 C24.7138404,67.2489844 25.827766,67.1649609 26.9308085,67.0060547 L26.9308085,154.161563 L26.9315106,154.161563 Z M37.3640745,54.6173437 C37.3637234,54.6176953 37.3633723,54.6180469 37.3630213,54.61875 C35.2022234,57.3837891 32.3115638,59.4137109 29.001734,60.4916016 C29.0003298,60.4919531 28.9989255,60.4926562 28.9978723,60.4933594 C28.9897979,60.4961719 28.9813723,60.4993359 28.9732979,60.5021484 C28.9725957,60.5025 28.9722447,60.5025 28.9718936,60.5025 C25.4949574,61.6275 21.6936383,61.6275 18.2167021,60.5025 C10.9802234,58.1610937 6.11834043,51.46875 6.11834043,43.8500391 C6.11834043,36.2313281 10.9798723,29.5389844 18.2163511,27.196875 C21.6932872,26.071875 25.4946064,26.071875 28.9715426,27.196875 C28.9718936,27.196875 28.9722447,27.196875 28.9725957,27.1972266 C28.9813723,27.2000391 28.9894468,27.2032031 28.9982234,27.2060156 C28.9999787,27.2063672 29.0010319,27.2067187 29.0020851,27.2074219 C32.3119149,28.2849609 35.2025745,30.3148828 37.3630213,33.0809766 C37.3633723,33.0813281 37.3637234,33.0820312 37.3640745,33.0823828 C39.7881702,36.185625 41.0695532,39.9090234 41.0695532,43.8496875 C41.0695532,47.7903516 39.7881702,51.51375 37.3640745,54.6173437 L37.3640745,54.6173437 Z M140.03234,53.4846094 L44.8915851,53.4846094 C45.8513936,51.3692578 46.4875213,49.1248828 46.7775,46.7989453 L140.03234,46.7989453 L140.03234,53.4846094 L140.03234,53.4846094 Z M140.032691,40.9000781 L46.7775,40.9000781 C46.4875213,38.5741406 45.8513936,36.3297656 44.8919362,34.2144141 L140.03234,34.2144141 L140.03234,40.9000781 L140.032691,40.9000781 Z M145.92284,50.9227734 L145.92284,43.8493359 L145.92284,36.7758984 L156.517947,43.8493359 L145.92284,50.9227734 L145.92284,50.9227734 Z" id="Shape" sketch:type="MSShapeGroup"></path>
            <path d="M23.5932447,33.0345703 C21.9660638,33.0345703 20.6478191,34.3550391 20.6478191,35.9841797 C20.6478191,37.6133203 21.9660638,38.9337891 23.5932447,38.9337891 C26.7328085,38.9337891 29.2875,41.4921094 29.2875,44.6361328 C29.2875,47.7801563 26.7328085,50.3384766 23.5932447,50.3384766 C21.9660638,50.3384766 20.6478191,51.6589453 20.6478191,53.2880859 C20.6478191,54.916875 21.9660638,56.2376953 23.5932447,56.2376953 C29.9815532,56.2376953 35.1783511,51.0331641 35.1783511,44.6361328 C35.1783511,38.2391016 29.9812021,33.0345703 23.5932447,33.0345703 L23.5932447,33.0345703 Z" id="Shape" sketch:type="MSShapeGroup"></path>
        </g>
    </g>
</svg>