<?xml version="1.0" encoding="UTF-8"?>
<svg width="48px" height="44px" viewBox="0 0 48 44" version="1.1" xmlns="http://www.w3.org/2000/svg" xmlns:xlink="http://www.w3.org/1999/xlink" xmlns:sketch="http://www.bohemiancoding.com/sketch/ns">
    <!-- Generator: Sketch 3.3.3 (12081) - http://www.bohemiancoding.com/sketch -->
    <title>Untitled 8</title>
    <desc>Created with Sketch.</desc>
    <defs></defs>
    <g id="Page-1" stroke="none" stroke-width="1" fill="none" fill-rule="evenodd" sketch:type="MSPage">
        <path d="M44.5,33.299 C43.051,24.788 36.414,18.022 27.965,16.381 C27.98,16.256 28,16.127 28,15.998 C28,13.795 26.207,11.998 24,11.998 C21.793,11.998 20,13.795 20,15.998 C20,16.127 20.02,16.256 20.035,16.381 C11.586,18.022 4.949,24.788 3.5,33.299 C1.828,34.245 0,35.639 0,37.202 C0,41.268 12.41,43.998 24,43.998 C35.59,43.998 48,41.268 48,37.202 C48,35.639 46.172,34.245 44.5,33.299 L44.5,33.299 Z M21.605,16.139 C21.602,16.092 21.602,16.045 21.602,15.998 C21.602,14.678 22.676,13.6 24,13.6 C25.324,13.6 26.398,14.678 26.398,15.998 C26.398,16.045 26.398,16.092 26.395,16.139 C26.359,16.135 26.32,16.131 26.281,16.127 C26.008,16.096 25.73,16.077 25.453,16.057 C25.352,16.049 25.25,16.038 25.145,16.034 C24.766,16.014 24.387,16.002 24,16.002 C23.617,16.002 23.234,16.014 22.855,16.034 C22.754,16.038 22.652,16.049 22.547,16.057 C22.27,16.077 21.992,16.1 21.719,16.127 C21.68,16.131 21.641,16.131 21.605,16.139 L21.605,16.139 Z M21.121,17.815 C21.547,17.752 21.98,17.706 22.414,17.67 C22.504,17.663 22.594,17.659 22.68,17.651 C23.559,17.592 24.441,17.592 25.32,17.651 C25.41,17.659 25.496,17.663 25.586,17.67 C26.02,17.706 26.453,17.752 26.883,17.815 C35.215,19.077 41.809,25.713 43.004,34.069 C43.039,34.327 43.07,34.584 43.098,34.842 C43.105,34.928 43.117,35.018 43.125,35.108 C43.156,35.459 43.18,35.815 43.191,36.17 C30.621,39.081 17.379,39.081 4.812,36.17 C4.824,35.815 4.844,35.459 4.875,35.108 C4.887,35.018 4.895,34.928 4.906,34.842 C4.934,34.581 4.961,34.327 5,34.069 C6.195,25.713 12.785,19.077 21.121,17.815 L21.121,17.815 Z M24,42.401 C10.324,42.401 1.602,38.987 1.602,37.202 C1.602,36.893 1.98,36.217 3.25,35.338 C3.246,35.381 3.25,35.428 3.246,35.475 C3.219,35.913 3.199,36.354 3.199,36.799 L3.199,37.432 L3.812,37.577 C10.418,39.163 17.207,39.956 24,39.956 C30.793,39.956 37.582,39.163 44.188,37.577 L44.801,37.432 L44.801,36.799 C44.801,36.354 44.781,35.913 44.754,35.475 C44.75,35.428 44.754,35.381 44.75,35.338 C46.02,36.217 46.398,36.893 46.398,37.202 C46.398,38.987 37.676,42.401 24,42.401 Z M7.855,34.385 C7.906,34.397 7.953,34.401 8,34.401 C8.379,34.401 8.719,34.131 8.789,33.745 C9.617,29.186 12.367,25.131 16.137,22.897 C16.516,22.67 16.641,22.178 16.418,21.799 C16.191,21.42 15.699,21.295 15.32,21.518 C11.156,23.987 8.129,28.448 7.215,33.456 C7.133,33.893 7.422,34.307 7.855,34.385 Z M20.277,21.209 C20.336,21.209 20.395,21.202 20.453,21.19 C21.602,20.932 22.793,20.799 23.988,20.799 L24,20.799 C24.441,20.799 24.801,20.444 24.801,20.002 C24.801,19.557 24.441,19.202 24,19.202 L23.988,19.202 C22.676,19.202 21.367,19.346 20.102,19.631 C19.668,19.725 19.398,20.155 19.496,20.584 C19.582,20.959 19.91,21.209 20.277,21.209 Z M23.48,10.166 C23.637,10.323 23.84,10.401 24.047,10.401 C24.25,10.401 24.457,10.323 24.609,10.166 C24.926,9.854 24.926,9.346 24.609,9.034 C23.801,8.221 23.801,6.901 24.609,6.088 C25.309,5.393 25.691,4.467 25.691,3.483 C25.691,2.498 25.309,1.573 24.609,0.877 C24.297,0.565 23.793,0.565 23.48,0.877 C23.168,1.19 23.168,1.698 23.48,2.01 C23.875,2.401 24.09,2.924 24.09,3.483 C24.09,4.038 23.875,4.561 23.48,4.956 C22.043,6.393 22.043,8.729 23.48,10.166 Z M32.281,14.967 C32.438,15.123 32.641,15.202 32.844,15.202 C33.051,15.202 33.254,15.123 33.41,14.967 C33.723,14.655 33.723,14.147 33.41,13.834 C32.598,13.022 32.598,11.702 33.41,10.889 C34.105,10.19 34.492,9.268 34.492,8.284 C34.492,7.299 34.109,6.373 33.41,5.678 C33.098,5.366 32.594,5.366 32.281,5.678 C31.969,5.991 31.969,6.495 32.281,6.807 C32.672,7.202 32.891,7.725 32.891,8.284 C32.891,8.838 32.676,9.362 32.281,9.756 C30.844,11.194 30.844,13.53 32.281,14.967 Z M14.68,14.967 C14.836,15.123 15.039,15.202 15.246,15.202 C15.449,15.202 15.656,15.123 15.812,14.967 C16.125,14.655 16.125,14.147 15.812,13.834 C15,13.022 15,11.702 15.812,10.889 C16.508,10.19 16.891,9.268 16.891,8.284 C16.891,7.299 16.508,6.373 15.812,5.678 C15.5,5.366 14.992,5.366 14.68,5.678 C14.367,5.991 14.367,6.495 14.68,6.807 C15.074,7.202 15.293,7.725 15.293,8.284 C15.293,8.838 15.074,9.362 14.68,9.756 C13.242,11.194 13.242,13.53 14.68,14.967 Z" id="restaurant" fill="#000000" sketch:type="MSShapeGroup"></path>
    </g>
</svg>