<?xml version="1.0" encoding="UTF-8"?>
<svg width="75px" height="71px" viewBox="0 0 75 71" version="1.1" xmlns="http://www.w3.org/2000/svg" xmlns:xlink="http://www.w3.org/1999/xlink" xmlns:sketch="http://www.bohemiancoding.com/sketch/ns">
    <!-- Generator: Sketch 3.3.3 (12081) - http://www.bohemiancoding.com/sketch -->
    <title>Untitled 6</title>
    <desc>Created with Sketch.</desc>
    <defs></defs>
    <g id="Page-1" stroke="none" stroke-width="1" fill="none" fill-rule="evenodd" sketch:type="MSPage">
        <path d="M74.34,13.987 C73.887,13.366 73.168,12.999 72.398,12.999 L18.398,12.999 C18.297,12.999 18.191,13.006 18.09,13.018 L15.867,6.612 C15.637,5.952 15.129,5.424 14.48,5.167 L3.277,0.768 C2.043,0.284 0.652,0.889 0.168,2.124 C-0.316,3.354 0.289,4.749 1.523,5.233 L11.695,9.229 L24.145,45.12 C23.598,45.311 23.129,45.733 22.918,46.323 L19.32,56.323 C19.098,56.936 19.188,57.616 19.562,58.151 C19.938,58.682 20.551,58.999 21.199,58.999 L23.051,58.999 C21.902,60.276 21.199,61.956 21.199,63.799 C21.199,67.772 24.43,70.999 28.398,70.999 C32.371,70.999 35.602,67.772 35.602,63.799 C35.602,61.956 34.898,60.276 33.75,58.999 L49.449,58.999 C48.305,60.276 47.602,61.956 47.602,63.799 C47.602,67.772 50.828,70.999 54.801,70.999 C58.77,70.999 62,67.772 62,63.799 C62,61.956 61.297,60.276 60.152,58.999 L62.398,58.999 C63.504,58.999 64.398,58.104 64.398,56.999 C64.398,55.897 63.504,54.999 62.398,54.999 L24.047,54.999 L26.273,48.807 C26.562,48.928 26.875,48.999 27.199,48.999 L62.398,48.999 C63.445,48.999 64.367,48.327 64.684,47.335 L74.684,16.131 C74.918,15.401 74.789,14.604 74.34,13.987 L74.34,13.987 Z M28.398,66.999 C26.637,66.999 25.199,65.565 25.199,63.799 C25.199,62.034 26.637,60.6 28.398,60.6 C30.164,60.6 31.602,62.034 31.602,63.799 C31.602,65.565 30.164,66.999 28.398,66.999 L28.398,66.999 Z M54.801,66.999 C53.035,66.999 51.602,65.565 51.602,63.799 C51.602,62.034 53.035,60.6 54.801,60.6 C56.566,60.6 58,62.034 58,63.799 C58,65.565 56.566,66.999 54.801,66.999 L54.801,66.999 Z M67.379,23.202 L55.133,23.202 L55.133,17.799 L69.109,17.799 L67.379,23.202 Z M63.855,34.202 L55.133,34.202 L55.133,27.999 L65.84,27.999 L63.855,34.202 Z M39.266,27.999 L50.332,27.999 L50.332,34.202 L39.266,34.202 L39.266,27.999 Z M39.266,38.999 L50.332,38.999 L50.332,44.202 L39.266,44.202 L39.266,38.999 Z M23.289,27.999 L34.465,27.999 L34.465,34.202 L25.438,34.202 L23.289,27.999 Z M39.266,17.799 L50.332,17.799 L50.332,23.202 L39.266,23.202 L39.266,17.799 Z M34.465,17.799 L34.465,23.202 L21.621,23.202 L19.75,17.799 L34.465,17.799 Z M27.105,38.999 L34.465,38.999 L34.465,44.202 L28.906,44.202 L27.105,38.999 Z M55.133,44.202 L55.133,38.999 L62.316,38.999 L60.648,44.202 L55.133,44.202 Z" id="shopping" fill="#000000" sketch:type="MSShapeGroup"></path>
    </g>
</svg>