<?xml version="1.0" encoding="UTF-8"?>
<svg width="362px" height="390px" viewBox="0 0 362 390" version="1.1" xmlns="http://www.w3.org/2000/svg" xmlns:xlink="http://www.w3.org/1999/xlink" xmlns:sketch="http://www.bohemiancoding.com/sketch/ns">
    <!-- Generator: Sketch 3.3.3 (12081) - http://www.bohemiancoding.com/sketch -->
    <title>Untitled 2</title>
    <desc>Created with Sketch.</desc>
    <defs></defs>
    <g id="Page-1" stroke="none" stroke-width="1" fill="none" fill-rule="evenodd" sketch:type="MSPage">
        <path d="M103.094,257.042 L317.574,257.042 C341.895,257.042 361.734,237.198 361.734,212.882 L361.734,121.679 C361.734,121.518 361.734,121.358 361.656,121.198 C361.656,121.042 361.574,120.8 361.574,120.64 C361.574,120.479 361.496,120.319 361.496,120.159 C361.414,119.999 361.414,119.839 361.336,119.6 C361.254,119.44 361.254,119.28 361.176,119.12 C361.094,118.96 361.094,118.8 361.016,118.64 C360.934,118.479 360.855,118.319 360.773,118.081 C360.695,117.921 360.613,117.761 360.535,117.679 L360.297,117.198 C360.215,117.042 360.137,116.96 360.055,116.8 C359.977,116.64 359.816,116.479 359.734,116.319 C359.656,116.159 359.574,116.081 359.414,115.921 C359.336,115.761 359.176,115.679 359.094,115.518 C359.016,115.358 358.855,115.28 358.773,115.12 C358.695,114.96 358.535,114.882 358.453,114.8 L358.055,114.401 C357.895,114.319 357.816,114.159 357.656,114.081 C357.496,113.999 357.336,113.839 357.176,113.761 C357.016,113.679 356.934,113.6 356.773,113.518 C356.613,113.44 356.453,113.358 356.297,113.198 L355.336,112.722 L354.855,112.479 C354.695,112.401 354.535,112.401 354.375,112.319 C354.215,112.241 353.977,112.159 353.816,112.159 C353.656,112.159 353.496,112.081 353.414,112.081 C353.176,111.999 353.016,111.999 352.773,111.999 C352.695,111.999 352.613,111.921 352.453,111.921 L80.613,74.401 L80.613,36.479 C80.613,36.081 80.613,35.679 80.535,35.358 C80.535,35.28 80.535,35.198 80.453,35.042 C80.453,34.8 80.375,34.561 80.375,34.319 C80.297,34.081 80.297,33.921 80.215,33.679 C80.215,33.518 80.137,33.44 80.137,33.28 L79.895,32.561 C79.895,32.479 79.816,32.319 79.816,32.241 C79.734,31.999 79.656,31.839 79.496,31.6 C79.414,31.518 79.414,31.358 79.336,31.28 C79.254,31.12 79.176,30.96 79.016,30.8 C78.934,30.64 78.855,30.561 78.773,30.401 C78.695,30.241 78.613,30.159 78.535,29.999 C78.453,29.839 78.297,29.679 78.215,29.518 L77.496,28.8 L77.254,28.561 C77.094,28.401 76.934,28.241 76.695,28.081 C76.613,27.999 76.453,27.921 76.375,27.839 C76.215,27.679 76.055,27.6 75.895,27.44 C75.656,27.28 75.414,27.12 75.254,27.042 C75.176,26.96 75.094,26.96 75.016,26.882 C74.695,26.722 74.297,26.561 73.977,26.401 L15.016,1.6 C9.496,-0.72 3.176,1.839 0.855,7.358 C-1.465,12.882 1.094,19.198 6.613,21.518 L58.934,43.6 L58.934,280.241 C58.934,302.64 75.734,321.198 97.414,323.999 C93.496,330.561 91.176,338.241 91.176,346.401 C91.176,370.479 110.773,389.999 134.773,389.999 C158.773,389.999 178.375,370.401 178.375,346.401 C178.375,338.401 176.215,330.8 172.375,324.401 L269.496,324.401 C265.656,330.882 263.496,338.401 263.496,346.401 C263.496,370.479 283.094,389.999 307.094,389.999 C331.094,389.999 350.695,370.401 350.695,346.401 C350.695,322.401 331.094,302.8 307.094,302.8 L103.094,302.8 C90.613,302.8 80.535,292.64 80.535,280.241 L80.535,250.96 C87.094,254.8 94.855,257.042 103.094,257.042 L103.094,257.042 Z M156.855,346.319 C156.855,358.479 146.934,368.319 134.855,368.319 C122.773,368.319 112.855,358.401 112.855,346.319 C112.855,334.241 122.773,324.319 134.855,324.319 C146.934,324.319 156.855,334.159 156.855,346.319 L156.855,346.319 Z M329.176,346.319 C329.176,358.479 319.254,368.319 307.176,368.319 C295.094,368.319 285.176,358.401 285.176,346.319 C285.176,334.241 295.094,324.319 307.176,324.319 C319.254,324.319 329.176,334.159 329.176,346.319 L329.176,346.319 Z M317.574,235.44 L103.094,235.44 C90.613,235.44 80.535,225.28 80.535,212.882 L80.535,96.159 L340.137,131.921 L340.137,212.8 C340.137,225.358 329.977,235.44 317.574,235.44 L317.574,235.44 Z" id="shopping-cart" fill="#000000" sketch:type="MSShapeGroup"></path>
    </g>
</svg>