<svg version="1.1" xmlns="http://www.w3.org/2000/svg" xmlns:xlink="http://www.w3.org/1999/xlink" width="66" height="33" viewBox="0 0 66 33"><defs><filter id="map-fx" filterUnits="userSpaceOnUse"><feFlood flood-color="#FD4B4E" flood-opacity="1.000"/><feComposite operator="in" in2="SourceGraphic"/><feBlend mode="normal" in2="SourceGraphic" result="colorOverlay"/></filter></defs><path id="map" d="M35.000,2.000 C34.561,5.208 34.123,4.929 33.000,7.000 C33.221,7.008 41.000,7.000 41.000,7.000 C41.000,8.000 41.000,9.000 41.000,10.000 C43.349,11.553 45.473,6.896 49.000,8.000 C49.939,8.294 53.057,11.596 54.000,12.000 C56.666,12.000 59.334,12.000 62.000,12.000 C63.585,12.710 63.424,14.214 66.000,15.000 C65.111,16.100 66.094,15.103 65.000,16.000 C63.478,17.169 63.877,16.920 62.000,16.000 C61.333,17.333 60.667,18.667 60.000,20.000 C56.717,22.206 55.403,18.951 52.000,20.000 C51.667,20.667 51.333,21.333 51.000,22.000 C49.802,22.453 48.469,21.097 46.000,22.000 C45.143,23.244 45.228,23.134 44.000,24.000 C45.441,26.024 45.638,25.291 46.000,29.000 C45.042,29.917 44.656,30.737 44.000,32.000 C43.333,32.000 42.667,32.000 42.000,32.000 C42.333,29.112 41.664,27.397 38.000,26.000 C36.770,27.443 24.915,29.268 22.000,28.000 C21.333,27.000 20.667,26.000 20.000,25.000 C17.199,23.830 10.089,27.242 8.000,28.000 C8.808,30.949 9.633,31.922 7.000,33.000 C6.083,32.042 5.263,31.656 4.000,31.000 C4.905,25.563 1.203,27.252 0.000,23.000 C-0.605,20.860 1.832,19.973 2.000,19.000 C2.114,18.340 1.034,14.166 1.000,12.000 C4.943,12.617 4.790,14.702 6.000,15.000 C8.459,15.605 12.318,11.609 17.000,13.000 C17.000,12.667 17.000,12.333 17.000,12.000 C15.727,10.085 16.362,10.115 17.000,8.000 C23.928,8.916 25.836,2.641 32.000,0.000 C33.283,2.582 31.832,1.281 35.000,2.000 zM3.000,15.000 C3.000,15.667 3.000,16.333 3.000,17.000 C3.667,17.000 4.333,17.000 5.000,17.000 C5.000,16.333 5.000,15.667 5.000,15.000 C4.333,15.000 3.667,15.000 3.000,15.000 zM54.000,21.000 C54.909,22.189 54.815,22.651 55.000,25.000 C54.000,25.667 53.000,26.333 52.000,27.000 C52.229,23.240 52.784,23.243 54.000,21.000 z" fill="#FD4B4E" filter="url(#map-fx)" /></svg>